<svg xmlns="http://www.w3.org/2000/svg" width="420" height="220" viewBox="0 0 420 220" role="img" aria-label="Güvenli Öde">
  <rect x="12" y="12" width="396" height="196" rx="28" fill="#f4f4f5" stroke="#c7c9cc" stroke-width="6"/>
  <g transform="translate(56 62)">
    <path d="M36 10c-20 0-36 16-36 36s16 36 36 36c13 0 25-5 32-14l-16-10c-4 4-9 7-16 7-10 0-18-8-18-18s8-18 18-18c6 0 12 3 16 7l16-11C61 15 49 10 36 10z" fill="#12aebd"/>
    <rect x="86" y="22" width="92" height="46" rx="23" fill="#12aebd"/>
    <circle cx="112" cy="45" r="10" fill="#f4f4f5"/>
    <path d="M112 45l16 0" stroke="#f4f4f5" stroke-width="7" stroke-linecap="round"/>
    <text x="188" y="54" font-family="Arial, Helvetica, sans-serif" font-size="38" font-weight="700" fill="#12aebd" letter-spacing="0.4">GÜVENLİ ÖDE</text>
  </g>
</svg>
