<svg xmlns="http://www.w3.org/2000/svg" width="420" height="220" viewBox="0 0 420 220" role="img" aria-label="Visa">
  <rect x="12" y="12" width="396" height="196" rx="28" fill="#f4f4f5" stroke="#c7c9cc" stroke-width="6"/>
  <path fill="#2042d5" d="M127 149l16-77h25l-16 77h-25zm120-75c-5-2-14-5-25-5-28 0-48 14-48 35 0 15 14 24 24 29 11 5 15 8 15 12 0 7-9 10-17 10-11 0-18-2-27-6l-4-2-4 22c6 3 18 5 31 5 30 0 50-14 50-36 0-12-8-22-23-29-9-5-15-8-15-12 0-4 5-9 15-9 9 0 15 2 20 4l2 1 4-21zm65-2h-19c-6 0-11 2-13 9l-37 68h30s4-10 5-12h37c1 3 3 12 3 12h26l-22-77h-10zm-13 54c2-5 9-24 9-24s2-6 3-10l2 9s4 19 5 25h-19zm-193-54l-24 52-3-14c-5-17-19-35-36-44l22 83h30l45-77h-34z"/>
</svg>
